# Blender v2.66 (sub 1) OBJ File: ''
# www.blender.org
o Plane_Plane.003
v 1.000000 -0.100000 0.000000
v -1.000000 -0.100000 0.000000
v 1.000000 1.900000 -0.000000
v -1.000000 1.900000 -0.000000
v 0.500000 -0.100000 -0.866025
v -0.500000 -0.100000 0.866025
v 0.500000 1.900000 -0.866025
v -0.500000 1.900000 0.866025
v -0.500000 -0.100000 -0.866025
v 0.500000 -0.100000 0.866025
v -0.500000 1.900000 -0.866025
v 0.500000 1.900000 0.866025
vt 0.000150 0.500150
vt 0.499850 0.500150
vt 0.499850 0.999850
vt 0.000150 0.999850
vt 0.000150 0.000150
vt 0.499850 0.000150
vt 0.499850 0.499850
vt 0.000150 0.499850
vt 0.500150 0.000150
vt 0.999850 0.000150
vt 0.999850 0.499850
vt 0.500150 0.499850
vn 0.000000 0.000000 1.000000
vn 0.866025 0.000000 0.500000
vn 0.866025 0.000000 -0.500000
s off
f 2/1/1 1/2/1 3/3/1 4/4/1
f 6/5/2 5/6/2 7/7/2 8/8/2
f 10/9/3 9/10/3 11/11/3 12/12/3
