# Blender v2.66 (sub 1) OBJ File: ''
# www.blender.org
o Cube_Cube
v -0.050000 -0.050000 0.150000
v -0.050000 -0.050000 0.050000
v 0.050000 -0.050000 0.050000
v 0.050000 -0.050000 0.150000
v 0.000000 0.750000 0.100000
vt 0.475000 0.310864
vt 0.475000 0.386228
vt 0.550363 0.386228
vt 0.512682 0.989136
vt 0.437318 0.989136
vt 0.399637 0.386228
vt 0.550363 0.310864
vn 0.000000 -1.000000 0.000000
vn 0.000000 0.062378 -0.998053
vn -0.998053 0.062378 0.000000
vn 0.998053 0.062378 -0.000000
vn 0.000000 0.062378 0.998053
s off
f 1/1/1 2/2/1 3/3/1
f 5/4/2 3/3/2 2/2/2
f 5/5/3 2/2/3 1/6/3
f 5/5/4 4/6/4 3/2/4
f 5/4/5 1/2/5 4/3/5
f 4/7/1 1/1/1 3/3/1
o Circle
v 0.000000 1.000000 -0.000000
v -0.195090 0.980785 -0.000000
v -0.382683 0.923879 -0.000000
v -0.555570 0.831469 -0.000000
v -0.707107 0.707106 -0.000000
v -0.831470 0.555570 -0.000000
v -0.923880 0.382683 -0.000000
v -0.980785 0.195090 -0.000000
v -1.000000 -0.000000 -0.000000
v -0.980785 -0.195090 -0.000000
v -0.923880 -0.382684 -0.000000
v -0.831470 -0.555570 -0.000000
v -0.707107 -0.707107 -0.000000
v -0.555570 -0.831470 -0.000000
v -0.382683 -0.923880 -0.000000
v -0.195090 -0.980786 -0.000000
v 0.000000 -1.000000 -0.000000
v 0.195091 -0.980785 -0.000000
v 0.382684 -0.923880 -0.000000
v 0.555571 -0.831470 -0.000000
v 0.707107 -0.707107 -0.000000
v 0.831470 -0.555570 -0.000000
v 0.923880 -0.382683 -0.000000
v 0.980785 -0.195090 -0.000000
v 1.000000 0.000001 -0.000000
v 0.980785 0.195091 -0.000000
v 0.923879 0.382684 -0.000000
v 0.831469 0.555571 -0.000000
v 0.707106 0.707107 -0.000000
v 0.555569 0.831470 -0.000000
v 0.382682 0.923880 -0.000000
v 0.195089 0.980785 -0.000000
v 0.000000 1.000000 0.100000
v -0.195090 0.980785 0.100000
v -0.382683 0.923879 0.100000
v -0.555570 0.831469 0.100000
v -0.707107 0.707106 0.100000
v -0.831470 0.555570 0.100000
v -0.923880 0.382683 0.100000
v -0.980785 0.195090 0.100000
v -1.000000 -0.000000 0.100000
v -0.980785 -0.195090 0.100000
v -0.923880 -0.382684 0.100000
v -0.831470 -0.555570 0.100000
v -0.707107 -0.707107 0.100000
v -0.555570 -0.831470 0.100000
v -0.382683 -0.923880 0.100000
v -0.195090 -0.980786 0.100000
v 0.000000 -1.000000 0.100000
v 0.195091 -0.980785 0.100000
v 0.382684 -0.923880 0.100000
v 0.555571 -0.831470 0.100000
v 0.707107 -0.707107 0.100000
v 0.831470 -0.555570 0.100000
v 0.923880 -0.382683 0.100000
v 0.980785 -0.195090 0.100000
v 1.000000 0.000001 0.100000
v 0.980785 0.195091 0.100000
v 0.923879 0.382684 0.100000
v 0.831469 0.555571 0.100000
v 0.707106 0.707107 0.100000
v 0.555569 0.831470 0.100000
v 0.382682 0.923880 0.100000
v 0.195089 0.980785 0.100000
v -0.000000 0.900000 0.100000
v -0.175581 0.882706 0.100000
v -0.344415 0.831491 0.100000
v -0.500013 0.748322 0.100000
v -0.636396 0.636396 0.100000
v -0.748323 0.500013 0.100000
v -0.831492 0.344415 0.100000
v -0.882707 0.175581 0.100000
v -0.900000 -0.000000 0.100000
v -0.882707 -0.175581 0.100000
v -0.831492 -0.344415 0.100000
v -0.748323 -0.500013 0.100000
v -0.636396 -0.636396 0.100000
v -0.500013 -0.748323 0.100000
v -0.344415 -0.831492 0.100000
v -0.175581 -0.882707 0.100000
v 0.000000 -0.900000 0.100000
v 0.175582 -0.882707 0.100000
v 0.344415 -0.831492 0.100000
v 0.500014 -0.748323 0.100000
v 0.636396 -0.636396 0.100000
v 0.748323 -0.500013 0.100000
v 0.831492 -0.344415 0.100000
v 0.882707 -0.175581 0.100000
v 0.900000 0.000001 0.100000
v 0.882707 0.175582 0.100000
v 0.831491 0.344416 0.100000
v 0.748322 0.500014 0.100000
v 0.636395 0.636397 0.100000
v 0.500012 0.748323 0.100000
v 0.344414 0.831492 0.100000
v 0.175580 0.882707 0.100000
v -0.000000 0.900000 0.050000
v -0.175581 0.882706 0.050000
v -0.344415 0.831491 0.050000
v -0.500013 0.748322 0.050000
v -0.636396 0.636396 0.050000
v -0.748323 0.500013 0.050000
v -0.831492 0.344415 0.050000
v -0.882707 0.175581 0.050000
v -0.900000 -0.000000 0.050000
v -0.882707 -0.175581 0.050000
v -0.831492 -0.344415 0.050000
v -0.748323 -0.500013 0.050000
v -0.636396 -0.636396 0.050000
v -0.500013 -0.748323 0.050000
v -0.344415 -0.831492 0.050000
v -0.175581 -0.882707 0.050000
v 0.000000 -0.900000 0.050000
v 0.175582 -0.882707 0.050000
v 0.344415 -0.831492 0.050000
v 0.500014 -0.748323 0.050000
v 0.636396 -0.636396 0.050000
v 0.748323 -0.500013 0.050000
v 0.831492 -0.344415 0.050000
v 0.882707 -0.175581 0.050000
v 0.900000 0.000001 0.050000
v 0.882707 0.175582 0.050000
v 0.831491 0.344416 0.050000
v 0.748322 0.500014 0.050000
v 0.636395 0.636397 0.050000
v 0.500012 0.748323 0.050000
v 0.344414 0.831492 0.050000
v 0.175580 0.882707 0.050000
v -0.000000 0.090000 0.150000
v -0.017558 0.088271 0.150000
v -0.034442 0.083149 0.150000
v -0.050001 0.074832 0.150000
v -0.063640 0.063640 0.150000
v -0.074832 0.050001 0.150000
v -0.083149 0.034442 0.150000
v -0.088271 0.017558 0.150000
v -0.090000 0.000000 0.150000
v -0.088271 -0.017558 0.150000
v -0.083149 -0.034442 0.150000
v -0.074832 -0.050001 0.150000
v -0.063640 -0.063640 0.150000
v -0.050001 -0.074832 0.150000
v -0.034442 -0.083149 0.150000
v -0.017558 -0.088271 0.150000
v -0.000000 -0.090000 0.150000
v 0.017558 -0.088271 0.150000
v 0.034441 -0.083149 0.150000
v 0.050001 -0.074832 0.150000
v 0.063640 -0.063640 0.150000
v 0.074832 -0.050001 0.150000
v 0.083149 -0.034441 0.150000
v 0.088271 -0.017558 0.150000
v 0.090000 0.000000 0.150000
v 0.088271 0.017558 0.150000
v 0.083149 0.034442 0.150000
v 0.074832 0.050001 0.150000
v 0.063639 0.063640 0.150000
v 0.050001 0.074832 0.150000
v 0.034441 0.083149 0.150000
v 0.017558 0.088271 0.150000
v 0.017558 0.088271 -0.050000
v 0.034441 0.083149 -0.050000
v 0.050001 0.074832 -0.050000
v 0.063639 0.063640 -0.050000
v 0.074832 0.050001 -0.050000
v 0.083149 0.034442 -0.050000
v 0.088271 0.017558 -0.050000
v 0.090000 0.000000 -0.050000
v 0.088271 -0.017558 -0.050000
v 0.083149 -0.034441 -0.050000
v 0.074832 -0.050001 -0.050000
v 0.063640 -0.063640 -0.050000
v 0.050001 -0.074832 -0.050000
v 0.034441 -0.083149 -0.050000
v 0.017558 -0.088271 -0.050000
v -0.000000 -0.090000 -0.050000
v -0.017558 -0.088271 -0.050000
v -0.034442 -0.083149 -0.050000
v -0.050001 -0.074832 -0.050000
v -0.063640 -0.063640 -0.050000
v -0.074832 -0.050001 -0.050000
v -0.083149 -0.034442 -0.050000
v -0.088271 -0.017558 -0.050000
v -0.090000 0.000000 -0.050000
v -0.088271 0.017558 -0.050000
v -0.083149 0.034442 -0.050000
v -0.074832 0.050001 -0.050000
v -0.063640 0.063640 -0.050000
v -0.050001 0.074832 -0.050000
v -0.034442 0.083149 -0.050000
v -0.017558 0.088271 -0.050000
v -0.000000 0.090000 -0.050000
vt 0.500000 1.000000
vt 0.597545 0.990393
vt 0.402456 0.990393
vt 0.000000 0.000000
vt 1.000000 0.000000
vt 1.000000 1.000000
vt 0.000000 1.000000
vt 0.691342 0.961940
vt 0.777785 0.915735
vt 0.915735 0.777785
vt 0.853553 0.853553
vt 0.961940 0.691342
vt 0.990393 0.597545
vt 1.000000 0.500000
vt 0.990393 0.402455
vt 0.308659 0.961940
vt 0.961940 0.308658
vt 0.915735 0.222215
vt 0.500000 0.000000
vt 0.691342 0.038060
vt 0.597545 0.009607
vt 0.777785 0.084265
vt 0.402455 0.009607
vt 0.308658 0.038060
vt 0.084265 0.222215
vt 0.222215 0.084265
vt 0.146446 0.146447
vt 0.038060 0.308659
vt 0.853553 0.146447
vt 0.222215 0.915735
vt 0.146447 0.853554
vt 0.009607 0.402455
vt 0.000000 0.500000
vt 0.084266 0.777786
vt 0.038060 0.691342
vt 0.009607 0.597546
vn -0.000000 0.000000 -1.000000
vn 0.000000 0.000000 1.000000
vn 0.471395 0.881922 0.000000
vn 0.995185 0.098018 0.000000
vn 0.634394 -0.773010 0.000000
vn -0.290284 -0.956940 -0.000000
vn -0.956940 -0.290285 -0.000000
vn -0.773010 0.634393 0.000000
vn 0.290283 0.956941 0.000000
vn 0.956940 0.290286 0.000000
vn 0.773011 -0.634393 0.000000
vn -0.098017 -0.995185 -0.000000
vn -0.881921 -0.471397 -0.000000
vn -0.881921 0.471397 0.000000
vn -0.098017 0.995185 0.000000
vn 0.098017 0.995185 0.000000
vn 0.881921 0.471398 0.000000
vn 0.881922 -0.471396 0.000000
vn 0.098017 -0.995185 0.000000
vn -0.773010 -0.634393 -0.000000
vn -0.956940 0.290285 0.000000
vn -0.290285 0.956940 0.000000
vn 0.773010 0.634394 0.000000
vn 0.956941 -0.290284 0.000000
vn 0.290285 -0.956940 0.000000
vn -0.634393 -0.773010 -0.000000
vn -0.995185 0.098017 0.000000
vn -0.471397 0.881921 0.000000
vn 0.634392 0.773011 0.000000
vn 0.995185 -0.098016 0.000000
vn 0.471397 -0.881921 0.000000
vn -0.471397 -0.881921 -0.000000
vn -0.995185 -0.098017 -0.000000
vn -0.634393 0.773010 0.000000
vn -0.000001 0.000001 1.000000
vn -0.881921 -0.471398 0.000000
vn -0.881922 0.471396 0.000000
vn 0.773010 0.634393 -0.000000
vn 0.956940 -0.290285 0.000000
vn -0.773010 -0.634394 0.000000
vn -0.956941 0.290284 0.000000
vn 0.634393 0.773010 -0.000000
vn 0.995185 -0.098017 0.000000
vn -0.634392 -0.773011 0.000000
vn -0.995185 0.098016 0.000000
vn 0.471397 0.881921 -0.000000
vn 0.995185 0.098017 -0.000000
vn 0.634393 -0.773010 0.000000
vn -0.471396 -0.881922 0.000000
vn -0.995185 -0.098018 0.000000
vn -0.634394 0.773010 0.000000
vn 0.290284 0.956940 -0.000000
vn 0.956940 0.290285 -0.000000
vn 0.773010 -0.634393 0.000000
vn -0.290283 -0.956941 0.000000
vn -0.956940 -0.290286 0.000000
vn -0.773011 0.634393 0.000000
vn 0.881921 0.471397 -0.000000
vn 0.881921 -0.471397 0.000000
vn 0.098014 0.995185 0.000000
vn 0.634391 0.773012 0.000000
vn 0.956941 -0.290282 0.000000
vn -0.098016 0.995185 0.000000
vn 0.634395 -0.773009 0.000000
vn 0.098020 -0.995185 0.000000
vn -0.471398 -0.881920 0.000000
vn -0.881920 -0.471398 0.000000
vn 0.471396 0.881922 0.000000
vn -0.995184 0.098020 0.000000
vn 0.881920 0.471399 0.000000
vn -0.290282 -0.956941 0.000000
vn -0.773012 -0.634391 0.000000
vn 0.290285 0.956940 0.000000
vn -0.995185 -0.098016 0.000000
vn -0.881920 0.471398 0.000000
vn 0.995185 0.098016 0.000000
vn -0.471396 0.881921 0.000000
vn 0.471395 -0.881922 0.000000
vn -0.098020 -0.995185 0.000000
vn -0.634391 -0.773012 0.000000
vn -0.956941 0.290282 0.000000
vn -0.000001 -0.000001 -1.000000
vn -0.000002 0.000001 -1.000000
vn -0.000001 -0.000000 -1.000000
vn -0.000001 0.000000 1.000000
vn -0.000002 -0.000001 1.000000
vn -0.000000 -0.000001 -1.000000
vn 0.000000 -0.000002 -1.000000
vn -0.000001 0.000003 1.000000
vn -0.000000 0.000001 1.000000
vn -0.000004 -0.000000 1.000000
vn -0.000002 0.000001 1.000000
vn 0.000001 0.000001 1.000000
vn -0.000007 0.000005 1.000000
s off
f 8/8/6 7/9/6 9/10/6
f 67/11/7 99/12/7 98/13/7
f 36/11/8 68/12/8 67/13/8
f 31/11/9 63/12/9 62/13/9
f 26/11/10 58/12/10 57/13/10
f 21/11/11 53/12/11 20/14/11
f 16/11/12 48/12/12 15/14/12
f 11/11/13 43/12/13 10/14/13
f 37/11/14 69/12/14 68/13/14
f 32/11/15 64/12/15 63/13/15
f 27/11/16 59/12/16 58/13/16
f 22/11/17 54/12/17 21/14/17
f 17/11/18 49/12/18 16/14/18
f 12/11/19 44/12/19 11/14/19
f 7/11/20 39/12/20 6/14/20
f 6/11/21 38/12/21 69/13/21
f 33/11/22 65/12/22 64/13/22
f 28/11/23 60/12/23 59/13/23
f 23/11/24 55/12/24 54/13/24
f 18/11/25 50/12/25 17/14/25
f 13/11/26 45/12/26 12/14/26
f 8/11/27 40/12/27 7/14/27
f 34/11/28 66/12/28 65/13/28
f 29/11/29 61/12/29 60/13/29
f 24/11/30 56/12/30 55/13/30
f 19/11/31 51/12/31 18/14/31
f 14/11/32 46/12/32 13/14/32
f 9/11/33 41/12/33 8/14/33
f 35/11/34 67/12/34 66/13/34
f 30/11/35 62/12/35 61/13/35
f 25/11/36 57/12/36 56/13/36
f 20/11/37 52/12/37 19/14/37
f 15/11/38 47/12/38 14/14/38
f 10/11/39 42/12/39 9/14/39
f 71/11/24 103/12/24 102/13/24
f 62/11/7 94/12/7 93/13/7
f 57/11/7 89/12/7 88/13/7
f 52/11/7 84/12/7 83/13/7
f 47/11/7 79/12/7 78/13/7
f 42/11/7 74/12/7 41/14/7
f 68/11/7 100/12/7 99/13/7
f 63/11/7 95/12/7 94/13/7
f 58/11/7 90/12/7 57/14/7
f 53/11/7 85/12/7 84/13/7
f 48/11/7 80/12/7 79/13/7
f 43/11/7 75/12/7 74/13/7
f 69/11/7 101/12/7 100/13/7
f 64/11/7 96/12/7 95/13/7
f 59/11/7 91/12/7 90/13/7
f 54/11/7 86/12/7 85/13/7
f 49/11/7 81/12/7 80/13/7
f 44/11/7 76/12/7 75/13/7
f 39/11/7 71/12/7 70/13/7
f 38/11/7 70/12/7 101/13/7
f 65/11/7 97/12/7 96/13/7
f 60/11/7 92/12/7 91/13/7
f 55/11/7 87/12/7 86/13/7
f 50/11/7 82/12/7 81/13/7
f 45/11/7 77/12/7 76/13/7
f 40/11/7 72/12/7 71/13/7
f 66/11/7 98/12/7 65/14/7
f 61/11/7 93/12/7 92/13/7
f 56/11/7 88/12/7 87/13/7
f 51/11/7 83/12/7 82/13/7
f 46/11/7 78/12/7 77/13/7
f 41/11/7 73/12/7 72/13/7
f 105/9/40 106/15/40 107/16/40
f 70/11/17 102/12/17 101/14/17
f 97/11/41 129/12/41 96/14/41
f 92/11/42 124/12/42 91/14/42
f 87/11/20 119/12/20 86/14/20
f 82/11/43 114/12/43 113/13/43
f 77/11/44 109/12/44 108/13/44
f 72/11/30 104/12/30 103/13/30
f 98/11/45 130/12/45 97/14/45
f 93/11/46 125/12/46 92/14/46
f 88/11/27 120/12/27 87/14/27
f 83/11/47 115/12/47 114/13/47
f 78/11/48 110/12/48 109/13/48
f 73/11/36 105/12/36 104/13/36
f 99/11/49 131/12/49 98/14/49
f 94/11/50 126/12/50 93/14/50
f 89/11/33 121/12/33 88/14/33
f 84/11/51 116/12/51 115/13/51
f 79/11/52 111/12/52 110/13/52
f 74/11/53 106/12/53 105/13/53
f 100/11/54 132/12/54 99/14/54
f 95/11/55 127/12/55 94/14/55
f 90/11/56 122/12/56 89/14/56
f 85/11/57 117/12/57 116/13/57
f 80/11/58 112/12/58 111/13/58
f 75/11/59 107/12/59 106/13/59
f 101/11/60 133/12/60 100/14/60
f 96/11/61 128/12/61 95/14/61
f 91/11/62 123/12/62 90/14/62
f 86/11/21 118/12/21 117/13/21
f 81/11/63 113/12/63 112/13/63
f 76/11/64 108/12/64 107/13/64
f 169/17/6 167/16/6 168/18/6
f 135/8/7 136/9/7 134/10/7
f 166/11/65 197/12/65 134/13/65
f 169/11/66 168/12/66 163/13/66
f 172/11/58 171/12/58 160/13/58
f 175/11/67 174/12/67 157/13/67
f 197/11/68 196/12/68 134/14/68
f 178/11/69 177/12/69 154/13/69
f 181/11/70 180/12/70 151/13/70
f 184/11/71 183/12/71 147/14/71
f 187/11/72 186/12/72 144/14/72
f 168/11/73 167/12/73 164/13/73
f 190/11/74 189/12/74 141/14/74
f 171/11/75 170/12/75 161/13/75
f 193/11/62 192/12/62 138/14/62
f 174/11/35 173/12/35 158/13/35
f 196/11/27 195/12/27 135/14/27
f 177/11/59 176/12/59 155/13/59
f 180/11/30 179/12/30 152/13/30
f 183/11/76 182/12/76 148/14/76
f 186/11/77 185/12/77 145/14/77
f 167/11/78 166/12/78 165/13/78
f 189/11/79 188/12/79 142/14/79
f 170/11/43 169/12/43 162/13/43
f 192/11/80 191/12/80 139/14/80
f 173/11/81 172/12/81 159/13/81
f 195/11/82 194/12/82 136/14/82
f 176/11/23 175/12/23 156/13/23
f 179/11/83 178/12/83 153/13/83
f 182/11/84 181/12/84 149/14/84
f 185/11/85 184/12/85 146/14/85
f 188/11/12 187/12/12 143/14/12
f 191/11/86 190/12/86 140/14/86
f 194/11/39 193/12/39 137/14/39
f 7/9/6 6/15/6 9/10/6
f 6/15/6 37/16/6 9/10/6
f 37/16/6 36/18/6 9/10/6
f 36/18/6 35/17/6 9/10/6
f 35/17/6 34/19/6 9/10/6
f 34/19/6 33/20/6 9/10/6
f 33/20/87 32/21/87 31/22/87
f 9/10/6 33/20/6 10/23/6
f 33/20/6 31/22/6 10/23/6
f 31/22/6 30/24/6 10/23/6
f 30/24/6 29/25/6 10/23/6
f 24/26/6 26/27/6 25/28/6
f 24/26/6 27/29/6 26/27/6
f 23/30/6 27/29/6 24/26/6
f 22/31/6 27/29/6 23/30/6
f 19/32/6 21/33/6 20/34/6
f 19/32/6 22/31/6 21/33/6
f 19/32/6 27/29/6 22/31/6
f 18/35/6 27/29/6 19/32/6
f 28/36/6 27/29/6 18/35/6
f 29/25/6 28/36/6 18/35/6
f 10/23/6 29/25/6 18/35/6
f 11/37/88 10/23/88 12/38/88
f 10/23/6 18/35/6 12/38/6
f 18/35/89 17/39/89 16/40/89
f 12/38/6 18/35/6 16/40/6
f 13/41/6 12/38/6 14/42/6
f 12/38/6 16/40/6 15/43/6
f 14/42/6 12/38/6 15/43/6
f 66/14/7 67/11/7 98/13/7
f 35/14/8 36/11/8 67/13/8
f 30/14/9 31/11/9 62/13/9
f 25/14/10 26/11/10 57/13/10
f 53/12/11 52/13/11 20/14/11
f 48/12/12 47/13/12 15/14/12
f 43/12/13 42/13/13 10/14/13
f 36/14/14 37/11/14 68/13/14
f 31/14/15 32/11/15 63/13/15
f 26/14/16 27/11/16 58/13/16
f 54/12/17 53/13/17 21/14/17
f 49/12/18 48/13/18 16/14/18
f 44/12/19 43/13/19 11/14/19
f 39/12/20 38/13/20 6/14/20
f 37/14/21 6/11/21 69/13/21
f 32/14/22 33/11/22 64/13/22
f 27/14/23 28/11/23 59/13/23
f 22/14/24 23/11/24 54/13/24
f 50/12/25 49/13/25 17/14/25
f 45/12/26 44/13/26 12/14/26
f 40/12/27 39/13/27 7/14/27
f 33/14/28 34/11/28 65/13/28
f 28/14/29 29/11/29 60/13/29
f 23/14/30 24/11/30 55/13/30
f 51/12/31 50/13/31 18/14/31
f 46/12/32 45/13/32 13/14/32
f 41/12/33 40/13/33 8/14/33
f 34/14/34 35/11/34 66/13/34
f 29/14/35 30/11/35 61/13/35
f 24/14/36 25/11/36 56/13/36
f 52/12/37 51/13/37 19/14/37
f 47/12/38 46/13/38 14/14/38
f 42/12/39 41/13/39 9/14/39
f 70/14/24 71/11/24 102/13/24
f 61/14/7 62/11/7 93/13/7
f 56/14/7 57/11/7 88/13/7
f 51/14/7 52/11/7 83/13/7
f 46/14/7 47/11/7 78/13/7
f 74/12/7 73/13/7 41/14/7
f 67/14/7 68/11/7 99/13/7
f 62/14/7 63/11/7 94/13/7
f 90/12/7 89/13/7 57/14/7
f 52/14/7 53/11/7 84/13/7
f 47/14/7 48/11/7 79/13/7
f 42/14/7 43/11/7 74/13/7
f 68/14/7 69/11/7 100/13/7
f 63/14/7 64/11/7 95/13/7
f 58/14/7 59/11/7 90/13/7
f 53/14/7 54/11/7 85/13/7
f 48/14/7 49/11/7 80/13/7
f 43/14/7 44/11/7 75/13/7
f 38/14/7 39/11/7 70/13/7
f 69/14/7 38/11/7 101/13/7
f 64/14/7 65/11/7 96/13/7
f 59/14/7 60/11/7 91/13/7
f 54/14/7 55/11/7 86/13/7
f 49/14/7 50/11/7 81/13/7
f 44/14/7 45/11/7 76/13/7
f 39/14/7 40/11/7 71/13/7
f 98/12/7 97/13/7 65/14/7
f 60/14/7 61/11/7 92/13/7
f 55/14/7 56/11/7 87/13/7
f 50/14/7 51/11/7 82/13/7
f 45/14/7 46/11/7 77/13/7
f 40/14/7 41/11/7 72/13/7
f 104/8/7 105/9/7 107/16/7
f 103/10/7 104/8/7 107/16/7
f 109/17/90 107/16/90 108/18/90
f 110/19/7 107/16/7 109/17/7
f 111/20/7 107/16/7 110/19/7
f 113/22/90 111/20/90 112/21/90
f 113/22/7 107/16/7 111/20/7
f 115/25/7 113/22/7 114/24/7
f 123/33/7 121/30/7 122/31/7
f 124/34/7 121/30/7 123/33/7
f 124/34/7 120/26/7 121/30/7
f 126/35/7 124/34/7 125/32/7
f 127/39/7 124/34/7 126/35/7
f 128/40/7 124/34/7 127/39/7
f 130/42/91 128/40/91 129/43/91
f 102/23/7 103/10/7 133/37/7
f 103/10/7 107/16/7 133/37/7
f 107/16/7 113/22/7 133/37/7
f 113/22/7 115/25/7 133/37/7
f 115/25/7 116/36/7 133/37/7
f 116/36/7 117/29/7 133/37/7
f 117/29/7 118/27/7 133/37/7
f 118/27/7 119/28/7 133/37/7
f 119/28/7 120/26/7 133/37/7
f 120/26/7 124/34/7 133/37/7
f 124/34/7 128/40/7 133/37/7
f 128/40/7 130/42/7 133/37/7
f 130/42/7 131/41/7 132/38/7
f 133/37/7 130/42/7 132/38/7
f 102/12/17 133/13/17 101/14/17
f 129/12/41 128/13/41 96/14/41
f 124/12/42 123/13/42 91/14/42
f 119/12/20 118/13/20 86/14/20
f 81/14/43 82/11/43 113/13/43
f 76/14/44 77/11/44 108/13/44
f 71/14/30 72/11/30 103/13/30
f 130/12/45 129/13/45 97/14/45
f 125/12/46 124/13/46 92/14/46
f 120/12/27 119/13/27 87/14/27
f 82/14/47 83/11/47 114/13/47
f 77/14/48 78/11/48 109/13/48
f 72/14/36 73/11/36 104/13/36
f 131/12/49 130/13/49 98/14/49
f 126/12/50 125/13/50 93/14/50
f 121/12/33 120/13/33 88/14/33
f 83/14/51 84/11/51 115/13/51
f 78/14/52 79/11/52 110/13/52
f 73/14/53 74/11/53 105/13/53
f 132/12/54 131/13/54 99/14/54
f 127/12/55 126/13/55 94/14/55
f 122/12/56 121/13/56 89/14/56
f 84/14/57 85/11/57 116/13/57
f 79/14/58 80/11/58 111/13/58
f 74/14/59 75/11/59 106/13/59
f 133/12/60 132/13/60 100/14/60
f 128/12/61 127/13/61 95/14/61
f 123/12/62 122/13/62 90/14/62
f 85/14/21 86/11/21 117/13/21
f 80/14/63 81/11/63 112/13/63
f 75/14/64 76/11/64 107/13/64
f 170/19/6 167/16/6 169/17/6
f 174/24/92 172/21/92 173/22/92
f 175/25/92 172/21/92 174/24/92
f 179/28/6 177/29/6 178/27/6
f 179/28/6 176/36/6 177/29/6
f 185/32/6 183/33/6 184/34/6
f 186/35/6 183/33/6 185/32/6
f 191/41/92 189/43/92 190/42/92
f 191/41/92 188/40/92 189/43/92
f 195/10/6 193/37/6 194/23/6
f 195/10/6 192/38/6 193/37/6
f 196/8/6 197/9/6 195/10/6
f 197/9/6 166/15/6 195/10/6
f 166/15/6 167/16/6 195/10/6
f 167/16/6 170/19/6 195/10/6
f 195/10/6 170/19/6 192/38/6
f 170/19/93 171/20/93 192/38/93
f 192/38/93 171/20/93 191/41/93
f 191/41/92 171/20/92 188/40/92
f 171/20/92 172/21/92 188/40/92
f 172/21/92 175/25/92 188/40/92
f 188/40/92 175/25/92 187/39/92
f 175/25/93 176/36/93 187/39/93
f 187/39/93 176/36/93 186/35/93
f 176/36/6 179/28/6 186/35/6
f 186/35/6 179/28/6 183/33/6
f 179/28/6 180/26/6 183/33/6
f 180/26/6 181/30/6 183/33/6
f 181/30/6 182/31/6 183/33/6
f 136/9/7 137/15/7 134/10/7
f 137/15/7 138/16/7 134/10/7
f 138/16/7 139/18/7 134/10/7
f 139/18/94 140/17/94 134/10/94
f 140/17/95 141/19/95 134/10/95
f 161/42/96 159/40/96 160/43/96
f 141/19/95 142/20/95 134/10/95
f 161/42/97 158/39/97 159/40/97
f 142/20/95 143/21/95 134/10/95
f 161/42/40 157/35/40 158/39/40
f 143/21/95 144/22/95 134/10/95
f 161/42/95 156/32/95 157/35/95
f 144/22/40 145/24/40 134/10/40
f 145/24/98 146/25/98 134/10/98
f 156/32/99 154/33/99 155/34/99
f 161/42/95 154/33/95 156/32/95
f 146/25/95 147/36/95 134/10/95
f 147/36/95 148/29/95 134/10/95
f 161/42/40 153/31/40 154/33/40
f 161/42/40 152/30/40 153/31/40
f 148/29/95 149/27/95 134/10/95
f 149/27/95 150/28/95 134/10/95
f 150/28/95 151/26/95 134/10/95
f 151/26/95 152/30/95 134/10/95
f 152/30/95 161/42/95 134/10/95
f 161/42/7 162/41/7 134/10/7
f 162/41/7 163/38/7 134/10/7
f 163/38/7 164/37/7 165/23/7
f 134/10/7 163/38/7 165/23/7
f 165/14/65 166/11/65 134/13/65
f 162/14/66 169/11/66 163/13/66
f 159/14/58 172/11/58 160/13/58
f 156/14/67 175/11/67 157/13/67
f 196/12/68 135/13/68 134/14/68
f 153/14/69 178/11/69 154/13/69
f 150/14/70 181/11/70 151/13/70
f 183/12/71 148/13/71 147/14/71
f 186/12/72 145/13/72 144/14/72
f 163/14/73 168/11/73 164/13/73
f 189/12/74 142/13/74 141/14/74
f 160/14/75 171/11/75 161/13/75
f 192/12/62 139/13/62 138/14/62
f 157/14/35 174/11/35 158/13/35
f 195/12/27 136/13/27 135/14/27
f 154/14/59 177/11/59 155/13/59
f 151/14/30 180/11/30 152/13/30
f 182/12/76 149/13/76 148/14/76
f 185/12/77 146/13/77 145/14/77
f 164/14/78 167/11/78 165/13/78
f 188/12/79 143/13/79 142/14/79
f 161/14/43 170/11/43 162/13/43
f 191/12/80 140/13/80 139/14/80
f 158/14/81 173/11/81 159/13/81
f 194/12/82 137/13/82 136/14/82
f 155/14/23 176/11/23 156/13/23
f 152/14/83 179/11/83 153/13/83
f 181/12/84 150/13/84 149/14/84
f 184/12/85 147/13/85 146/14/85
f 187/12/12 144/13/12 143/14/12
f 190/12/86 141/13/86 140/14/86
f 193/12/39 138/13/39 137/14/39
