#
#
#

mtllib w.mtl


#
#  Mesh
#
g  Mesh


#
#  Mesh_None
#
usemtl  Mesh_None

v 0.000000 -1.000000 0.000000
v 0.723600 -0.447215 0.525720
v -0.276385 -0.447215 0.850640
v 0.723600 -0.447215 -0.525720
v -0.894425 -0.447215 0.000000
v -0.276385 -0.447215 -0.850640
v 0.894425 0.447215 0.000000
v 0.276385 0.447215 0.850640
v -0.723600 0.447215 0.525720
v -0.723600 0.447215 -0.525720
v 0.276385 0.447215 -0.850640
v 0.000000 1.000000 0.000000
vn 0.000003 -1.000000 0.000000
vn 0.723606 -0.447213 0.525733
vn -0.276390 -0.447210 0.850654
vn 0.723606 -0.447213 -0.525733
vn 0.000003 -1.000000 0.000000
vn -0.894428 -0.447211 0.000000
vn -0.276390 -0.447210 -0.850654
vn 0.000003 -1.000000 0.000000
vn 0.723606 -0.447213 0.525733
vn 0.894429 0.447211 0.000000
vn 0.276390 0.447210 0.850654
vn -0.894428 -0.447211 -0.000000
vn -0.276390 -0.447210 0.850654
vn -0.723606 0.447213 0.525733
vn -0.276390 -0.447210 -0.850654
vn -0.894428 -0.447211 0.000000
vn -0.723606 0.447213 -0.525733
vn -0.276390 -0.447210 -0.850654
vn 0.276390 0.447210 -0.850654
vn 0.723606 -0.447213 0.525733
vn -0.276390 -0.447210 0.850654
vn 0.723606 -0.447213 -0.525733
vn 0.894428 0.447211 -0.000000
vn -0.000003 1.000000 0.000000
vn 0.276390 0.447210 0.850654
vn -0.000003 1.000000 0.000000
vn 0.894428 0.447211 0.000000
vn 0.276390 0.447210 -0.850654
vn -0.000003 1.000000 0.000000
vt 0.193156 0.050101
vt 0.000000 0.199260
vt 0.000296 0.000000
vt 0.225751 0.291959
vt 0.761818 0.391336
vt 0.788524 0.588799
vt 0.577299 0.466560
vt 0.026706 0.391336
vt 0.211225 0.466560
vt 0.000000 0.588799
vt 0.365571 0.149991
vt 0.053037 0.391336
vt 0.815637 0.391336
vt 1.000000 0.466940
vt 0.788524 0.588747
vt 0.577048 0.710606
vt 0.211476 0.710606
vt 0.365571 0.466940
vt 0.549934 0.391336
vt 0.577048 0.588747
vt 0.999749 0.710986
vt 0.761410 0.786210
vt 0.418608 0.000000
vt 0.591322 0.099377
vt 0.365571 0.192075
vt 0.027114 0.786210
vt 0.365823 0.710986
vt 0.815230 0.786210
vt 0.731142 0.241345
vt 0.558727 0.341235
vt 0.365867 0.391336
vt 0.550341 0.786210
f 1/1/1 2/2/2 3/3/3
f 2/2/2 1/1/1 4/4/4
f 1/5/5 3/6/3 5/7/6
f 1/8/5 5/9/6 6/10/7
f 1/1/8 6/11/7 4/4/4
f 2/2/9 4/4/4 7/12/10
f 3/13/3 2/14/2 8/15/11
f 5/7/12 3/6/13 9/16/14
f 6/10/15 5/9/16 10/17/17
f 4/18/4 6/19/18 11/20/19
f 2/14/20 7/21/10 8/15/11
f 3/6/21 8/22/11 9/16/14
f 5/23/6 9/24/14 10/25/17
f 6/10/18 10/17/17 11/26/19
f 4/18/22 11/20/19 7/27/10
f 8/15/11 7/21/23 12/28/24
f 9/24/14 8/29/25 12/30/24
f 10/25/17 9/24/14 12/30/24
f 11/31/19 10/25/17 12/30/26
f 7/27/27 11/20/28 12/32/29
